<svg xmlns="http://www.w3.org/2000/svg" viewBox="0 0 32 32"><g fill="#10b981"><rect x="1" y="1" width="6" height="6" opacity=".3"/><rect x="9" y="1" width="6" height="6" opacity=".6"/><rect x="17" y="1" width="6" height="6" opacity=".2"/><rect x="25" y="1" width="6" height="6" opacity=".5"/><rect x="1" y="9" width="6" height="6" opacity=".7"/><rect x="9" y="9" width="6" height="6" opacity="1"/><rect x="17" y="9" width="6" height="6" opacity=".8"/><rect x="25" y="9" width="6" height="6" opacity=".3"/><rect x="1" y="17" width="6" height="6" opacity=".4"/><rect x="9" y="17" width="6" height="6" opacity=".9"/><rect x="17" y="17" width="6" height="6" opacity=".6"/><rect x="25" y="17" width="6" height="6" opacity=".2"/><rect x="1" y="25" width="6" height="6" opacity=".2"/><rect x="9" y="25" width="6" height="6" opacity=".5"/><rect x="17" y="25" width="6" height="6" opacity=".3"/><rect x="25" y="25" width="6" height="6" opacity=".7"/></g></svg>
